<?xml version="1.0" encoding="UTF-8"?>
<svg version="1.1" xmlns="http://www.w3.org/2000/svg" width="500" height="500">
<path d="M0 0 C165 0 330 0 500 0 C500 165 500 330 500 500 C335 500 170 500 0 500 C0 335 0 170 0 0 Z " fill="#826DF7" transform="translate(0,0)"/>
<path d="M0 0 C0.33 0.33 0.66 0.66 1 1 C2.0725 1.12375 3.145 1.2475 4.25 1.375 C7.94453343 1.99075557 10.0395546 2.75723834 13 5 C13 5.66 13 6.32 13 7 C14.60875 7.433125 14.60875 7.433125 16.25 7.875 C19.09815211 8.72944563 21.48772642 9.45398549 24 11 C24.33 11.66 24.66 12.32 25 13 C25.639375 13.103125 26.27875 13.20625 26.9375 13.3125 C27.618125 13.539375 28.29875 13.76625 29 14 C29.66666667 15.66666667 30.33333333 17.33333333 31 19 C32.94603274 19.59070014 32.94603274 19.59070014 35 20 C37.38420461 22.55450494 38 23.4404523 38 27 C39.65 27.66 41.3 28.32 43 29 C43 30.32 43 31.64 43 33 C43.99 33.33 44.98 33.66 46 34 C46 35.32 46 36.64 46 38 C46.66 38 47.32 38 48 38 C48 38.66 48 39.32 48 40 C48.99 40.33 49.98 40.66 51 41 C51.0825 41.94875 51.165 42.8975 51.25 43.875 C51.4975 44.90625 51.745 45.9375 52 47 C53.93330603 48.09166275 53.93330603 48.09166275 56 49 C56.33 49.845625 56.66 50.69125 57 51.5625 C57.33 52.366875 57.66 53.17125 58 54 C60.02463255 54.65213292 60.02463255 54.65213292 62 55 C62.33 55.99 62.66 56.98 63 58 C63.66 58 64.32 58 65 58 C65 58.66 65 59.32 65 60 C67.31 60.66 69.62 61.32 72 62 C72 62.66 72 63.32 72 64 C73.04800781 64.13277344 74.09601563 64.26554687 75.17578125 64.40234375 C76.55470778 64.58057235 77.93361293 64.75896641 79.3125 64.9375 C80.00279297 65.02451172 80.69308594 65.11152344 81.40429688 65.20117188 C84.40142288 65.59210135 87.12450119 66.0415004 90 67 C90 67.66 90 68.32 90 69 C90.845625 68.79375 91.69125 68.5875 92.5625 68.375 C97.16693217 67.87269831 100.87572192 68.93786096 105 71 C105 70.01 105 69.02 105 68 C104.319375 67.9175 103.63875 67.835 102.9375 67.75 C99.1253093 66.77667472 96.35929671 65.04192545 93 63 C93 61.68 93 60.36 93 59 C95.06277107 59.14194764 97.12521031 59.28872216 99.1875 59.4375 C100.33605469 59.51871094 101.48460937 59.59992188 102.66796875 59.68359375 C106.65309893 60.0620176 110.20548421 60.7351614 114 62 C113.97679687 61.04738281 113.95359375 60.09476563 113.9296875 59.11328125 C113.91164063 57.85902344 113.89359375 56.60476562 113.875 55.3125 C113.85179687 54.07113281 113.82859375 52.82976562 113.8046875 51.55078125 C113.98967979 48.18762143 114.54232105 46.0014413 116 43 C118.80272011 43.28993656 119.81421766 43.78669435 121.6875 45.9375 C123.51885249 50.21065582 123.74052678 54.39211355 124 59 C124.61746094 58.7834375 125.23492187 58.566875 125.87109375 58.34375 C131.83640307 56.38255242 136.72880367 55.69655502 143 56 C142.38517439 59.37774562 141.14304154 61.47618303 139.0625 64.1875 C138.27552734 65.22970703 138.27552734 65.22970703 137.47265625 66.29296875 C136 68 136 68 134 69 C133.67 69.99 133.34 70.98 133 72 C136.96 72.495 136.96 72.495 141 73 C141 73.66 141 74.32 141 75 C142.32 75 143.64 75 145 75 C147.3125 76.75 147.3125 76.75 149 79 C148.67 80.32 148.34 81.64 148 83 C143.38 83 138.76 83 134 83 C134.4640625 84.4540625 134.4640625 84.4540625 134.9375 85.9375 C136.17967097 90.23664491 136.61684853 94.55342634 137 99 C133.94094199 99.96498182 133.24038754 100.09929051 130.125 98.8125 C126.97937369 96.98803674 123.99117476 95.06533495 121 93 C121 93.99 121 94.98 121 96 C119.1875 98.1875 119.1875 98.1875 117 100 C116.01 100 115.02 100 114 100 C114 100.66 114 101.32 114 102 C112.68 102 111.36 102 110 102 C107.78735334 97.57470667 108.70954706 92.03473859 110 87.4375 C110.33 86.633125 110.66 85.82875 111 85 C109.515 85.99 109.515 85.99 108 87 C105.08203125 87.1953125 105.08203125 87.1953125 101.8125 87.125 C100.72582031 87.10695313 99.63914062 87.08890625 98.51953125 87.0703125 C97.68808594 87.04710937 96.85664063 87.02390625 96 87 C96 85.35 96 83.7 96 82 C97.32 82 98.64 82 100 82 C100 80.68 100 79.36 100 78 C96.04 77.505 96.04 77.505 92 77 C92 76.34 92 75.68 92 75 C91.3915625 75.05800781 90.783125 75.11601562 90.15625 75.17578125 C83.7794718 75.50399778 78.41015039 74.52147159 72.375 72.625 C71.66408203 72.40368408 70.95316406 72.18236816 70.22070312 71.9543457 C68.45666932 71.37040594 66.7243994 70.69227713 65 70 C64.67 69.34 64.34 68.68 64 68 C61.98330173 66.86649466 61.98330173 66.86649466 60 66 C60 65.34 60 64.68 60 64 C59.29875 63.814375 58.5975 63.62875 57.875 63.4375 C52.11635767 60.55817883 49.32451139 55.81127847 47 50 C46.319375 49.67 45.63875 49.34 44.9375 49 C44.298125 48.67 43.65875 48.34 43 48 C42.25 45.375 42.25 45.375 42 43 C41.34 43 40.68 43 40 43 C39.76925781 42.48050781 39.53851563 41.96101563 39.30078125 41.42578125 C37.10729706 36.73536643 34.83975876 33.5588008 31 30 C26 24.52185792 26 24.52185792 26 22 C25.4225 21.87625 24.845 21.7525 24.25 21.625 C21.97664233 20.99351176 20.0746471 20.11141809 18 19 C18 18.34 18 17.68 18 17 C16.824375 16.566875 16.824375 16.566875 15.625 16.125 C13 15 13 15 11 13 C9.00251087 12.26634546 6.9760434 11.61037089 4.9375 11 C3.31134766 10.505 3.31134766 10.505 1.65234375 10 C0.44707031 9.67 -0.75820313 9.34 -2 9 C-2.99942627 8.72095825 -2.99942627 8.72095825 -4.01904297 8.4362793 C-10.36388005 6.82538055 -16.47946328 6.7339891 -23 6.8125 C-24.04800781 6.81314453 -25.09601563 6.81378906 -26.17578125 6.81445312 C-30.93268485 6.39505381 -30.93268485 6.39505381 -35 8 C-36.99958364 8.04080783 -39.00045254 8.04254356 -41 8 C-41 8.66 -41 9.32 -41 10 C-41.99 10.33 -42.98 10.66 -44 11 C-44.33 11.66 -44.66 12.32 -45 13 C-46.65 13 -48.3 13 -50 13 C-50 13.66 -50 14.32 -50 15 C-50.56589844 15.26554687 -51.13179687 15.53109375 -51.71484375 15.8046875 C-52.44832031 16.15789062 -53.18179688 16.51109375 -53.9375 16.875 C-54.66839844 17.22304687 -55.39929688 17.57109375 -56.15234375 17.9296875 C-58.16332459 18.8684977 -58.16332459 18.8684977 -59 21 C-60.2065625 21.7115625 -60.2065625 21.7115625 -61.4375 22.4375 C-64.2355972 23.89664045 -64.2355972 23.89664045 -66 27 C-68.625 27.6875 -68.625 27.6875 -71 28 C-71.33 29.65 -71.66 31.3 -72 33 C-72.99 33 -73.98 33 -75 33 C-75 33.66 -75 34.32 -75 35 C-75.66 35 -76.32 35 -77 35 C-77 35.99 -77 36.98 -77 38 C-77.66 38 -78.32 38 -79 38 C-80.73783087 41.22740018 -81.86546069 44.52011052 -83 48 C-81.81921875 48.04898438 -80.6384375 48.09796875 -79.421875 48.1484375 C-77.86456063 48.22348879 -76.30727009 48.29903561 -74.75 48.375 C-73.97269531 48.4059375 -73.19539062 48.436875 -72.39453125 48.46875 C-68.4478701 48.67114288 -65.43115497 48.86469691 -62 51 C-60.989375 51.33 -59.97875 51.66 -58.9375 52 C-56 53 -56 53 -53 55 C-51.34771601 61.58695764 -51.9538374 67.62078717 -54 74 C-52.68 74.33 -51.36 74.66 -50 75 C-50 75.66 -50 76.32 -50 77 C-48.865625 76.938125 -47.73125 76.87625 -46.5625 76.8125 C-41.00297344 76.79267994 -35.94270624 78.52864688 -31 81 C-31 81.66 -31 82.32 -31 83 C-30.01 83 -29.02 83 -28 83 C-28 83.66 -28 84.32 -28 85 C-26.989375 85.28875 -25.97875 85.5775 -24.9375 85.875 C-21.29166667 86.91666667 -17.64583333 87.95833333 -14 89 C-14 89.66 -14 90.32 -14 91 C-13.01 91 -12.02 91 -11 91 C-10.01 92.485 -10.01 92.485 -9 94 C-8.0925 94.45375 -7.185 94.9075 -6.25 95.375 C-3.31648273 96.84175863 -1.10998917 98.44801483 1.34375 100.6015625 C3.92955466 102.78485983 6.70234066 104.71008822 9.4609375 106.66796875 C9.96882813 107.10753906 10.47671875 107.54710937 11 108 C11 108.66 11 109.32 11 110 C12.32 110.33 13.64 110.66 15 111 C15 111.99 15 112.98 15 114 C15.66 114 16.32 114 17 114 C19.625 116.375 19.625 116.375 22 119 C22 119.66 22 120.32 22 121 C22.99 121.33 23.98 121.66 25 122 C25.6875 124.0625 25.6875 124.0625 26 126 C27.32 126.33 28.64 126.66 30 127 C30 127.99 30 128.98 30 130 C30.66 130 31.32 130 32 130 C32 130.66 32 131.32 32 132 C32.66 132 33.32 132 34 132 C34 132.99 34 133.98 34 135 C34.66 135 35.32 135 36 135 C36.39832031 135.84304687 36.79664063 136.68609375 37.20703125 137.5546875 C37.73683594 138.65039062 38.26664062 139.74609375 38.8125 140.875 C39.33457031 141.96554688 39.85664063 143.05609375 40.39453125 144.1796875 C41.84724897 147.22221402 41.84724897 147.22221402 45 149 C45.73046875 151.3828125 45.73046875 151.3828125 46.1875 154.125 C46.34605469 155.03507813 46.50460937 155.94515625 46.66796875 156.8828125 C46.77753906 157.58148438 46.88710938 158.28015625 47 159 C47.66 159 48.32 159 49 159 C49.33 161.31 49.66 163.62 50 166 C50.99 166.33 51.98 166.66 53 167 C55.01430083 170.71055417 55.19402245 173.82851735 55 178 C55.66 178 56.32 178 57 178 C57.11593506 178.62567871 57.23187012 179.25135742 57.35131836 179.89599609 C57.87693387 182.72291967 58.40715861 185.54895938 58.9375 188.375 C59.11990234 189.35984375 59.30230469 190.3446875 59.49023438 191.359375 C59.75610352 192.77089844 59.75610352 192.77089844 60.02734375 194.2109375 C60.27085571 195.51490479 60.27085571 195.51490479 60.51928711 196.84521484 C60.9165899 199.03462366 60.9165899 199.03462366 62 201 C62.23990463 203.40200804 62.42588991 205.77921907 62.5625 208.1875 C62.62401245 209.26717041 62.62401245 209.26717041 62.68676758 210.36865234 C63.65870065 228.7408033 63.63222972 248.31479868 58 266 C57.7628125 266.76828125 57.525625 267.5365625 57.28125 268.328125 C55.62558248 273.47509142 53.73203448 278.54306898 51.8671875 283.6171875 C51.21769514 285.40182866 50.6005651 287.1983047 50 289 C49.34 289 48.68 289 48 289 C48 290.32 48 291.64 48 293 C47.34 293 46.68 293 46 293 C45.67 294.65 45.34 296.3 45 298 C44.34 298 43.68 298 43 298 C43 299.65 43 301.3 43 303 C42.34 303.33 41.68 303.66 41 304 C40.525625 305.11375 40.05125 306.2275 39.5625 307.375 C38.15296309 310.64512563 37.46943692 311.72811803 35 314 C34.319375 315.051875 33.63875 316.10375 32.9375 317.1875 C32.298125 318.115625 31.65875 319.04375 31 320 C30.34 320 29.68 320 29 320 C29 320.99 29 321.98 29 323 C28.34 323 27.68 323 27 323 C26.67 323.99 26.34 324.98 26 326 C24.68733482 327.35368596 23.35432675 328.68799596 22 330 C21.67 330.66 21.34 331.32 21 332 C20.34 332 19.68 332 19 332 C18.67 332.99 18.34 333.98 18 335 C17.34 335 16.68 335 16 335 C16 335.99 16 336.98 16 338 C15.236875 338.226875 14.47375 338.45375 13.6875 338.6875 C10.4344309 340.27620816 9.77429048 341.93531644 8 345 C7.01 345 6.02 345 5 345 C5 345.66 5 346.32 5 347 C3.5459375 347.680625 3.5459375 347.680625 2.0625 348.375 C-1.07079582 349.65786221 -1.07079582 349.65786221 -2 352 C-3.64821244 353.03013277 -5.32111559 354.02065076 -7 355 C-8.47967239 356.04094817 -9.95879642 357.08267606 -11.4375 358.125 C-14.95147491 360.49898974 -17.6736637 361.7781366 -22 362 C-22 362.66 -22 363.32 -22 364 C-22.86882812 364.32613281 -23.73765625 364.65226562 -24.6328125 364.98828125 C-25.78523437 365.42527344 -26.93765625 365.86226563 -28.125 366.3125 C-29.26195312 366.74175781 -30.39890625 367.17101562 -31.5703125 367.61328125 C-34.98313081 368.93369079 -34.98313081 368.93369079 -38.0625 370.5703125 C-41.00824928 372.00401494 -43.69053946 372.82340107 -46.875 373.5625 C-50.33760179 374.37371374 -53.76751478 375.21427775 -57.1875 376.1875 C-61.55186695 377.11761099 -65.56193018 377.18491958 -70 377 C-70 377.66 -70 378.32 -70 379 C-113.55111097 381.54578519 -113.55111097 381.54578519 -132.12890625 374.62890625 C-135.05153621 373.6465609 -137.94094049 373.32543186 -141 373 C-141 372.34 -141 371.68 -141 371 C-144.96 370.34 -148.92 369.68 -153 369 C-153.495 367.515 -153.495 367.515 -154 366 C-154.845625 365.896875 -155.69125 365.79375 -156.5625 365.6875 C-161.74221964 364.65155607 -166.33340676 362.42662848 -171 360 C-171 359.34 -171 358.68 -171 358 C-171.94875 357.690625 -172.8975 357.38125 -173.875 357.0625 C-177 356 -177 356 -179 355 C-179 354.01 -179 353.02 -179 352 C-180.32 352 -181.64 352 -183 352 C-183 351.34 -183 350.68 -183 350 C-183.99 350 -184.98 350 -186 350 C-187.35386936 348.34997172 -188.68678142 346.6825613 -190 345 C-190.99 344.67 -191.98 344.34 -193 344 C-193 343.34 -193 342.68 -193 342 C-193.99 342 -194.98 342 -196 342 C-196.103125 341.360625 -196.20625 340.72125 -196.3125 340.0625 C-196.539375 339.381875 -196.76625 338.70125 -197 338 C-197.99 337.67 -198.98 337.34 -200 337 C-200 336.34 -200 335.68 -200 335 C-200.61875 334.731875 -201.2375 334.46375 -201.875 334.1875 C-204 333 -204 333 -206 330 C-206.99 329.67 -207.98 329.34 -209 329 C-209 328.01 -209 327.02 -209 326 C-209.99 326 -210.98 326 -212 326 C-212.598125 324.906875 -213.19625 323.81375 -213.8125 322.6875 C-214.99887954 320.5881972 -215.94299796 319.05489085 -217.6875 317.375 C-219 316 -219 316 -219.4375 313.4375 C-219.623125 312.633125 -219.80875 311.82875 -220 311 C-220.928125 310.5359375 -220.928125 310.5359375 -221.875 310.0625 C-225.05961059 308.47019471 -225.70945835 306.22635412 -227 303 C-227 301.68 -227 300.36 -227 299 C-227.66 299 -228.32 299 -229 299 C-229.66 297.02 -230.32 295.04 -231 293 C-231.66 293 -232.32 293 -233 293 C-236.2531053 284.97389593 -238.95646179 277.0636586 -241.203125 268.703125 C-241.73452814 266.10603764 -241.73452814 266.10603764 -243 265 C-243.14115161 262.32941149 -243.04247107 259.67567762 -243 257 C-243.66 257 -244.32 257 -245 257 C-245.04898438 256.21238281 -245.09796875 255.42476563 -245.1484375 254.61328125 C-245.53752806 248.9446343 -246.05639499 243.4067293 -247.0625 237.8125 C-247.97069401 232.28200515 -248.1869456 226.90247701 -248.1875 221.3125 C-248.1882251 220.52141846 -248.1889502 219.73033691 -248.18969727 218.9152832 C-248.13492305 213.2698461 -248.13492305 213.2698461 -247 211 C-246.78848493 209.02934967 -246.58159409 207.05802935 -246.40454102 205.08398438 C-245.60641769 196.27141012 -243.92208245 188.3811667 -241 180 C-240.46978618 178.25281922 -239.94832802 176.50294669 -239.4375 174.75 C-237.14341313 167.12771135 -234.72292696 160.06072355 -231 153 C-230.34 153 -229.68 153 -229 153 C-228.896875 152.29875 -228.79375 151.5975 -228.6875 150.875 C-227.90640997 147.60862353 -226.57941257 144.9528148 -225 142 C-224.34 142 -223.68 142 -223 142 C-222.814375 141.071875 -222.814375 141.071875 -222.625 140.125 C-222 138 -222 138 -220 136 C-219.3574765 133.93125966 -219.3574765 133.93125966 -219 132 C-218.01 132 -217.02 132 -216 132 C-215.90460938 131.42378906 -215.80921875 130.84757813 -215.7109375 130.25390625 C-214.84427225 127.50629168 -213.56180529 126.05817921 -211.625 123.9375 C-210.71621094 122.93009766 -210.71621094 122.93009766 -209.7890625 121.90234375 C-208.90347656 120.96068359 -208.90347656 120.96068359 -208 120 C-207.47148437 119.42378906 -206.94296875 118.84757812 -206.3984375 118.25390625 C-205 117 -205 117 -203 117 C-202.505 115.515 -202.505 115.515 -202 114 C-199.9375 113.3125 -199.9375 113.3125 -198 113 C-198 112.01 -198 111.02 -198 110 C-197.34 110 -196.68 110 -196 110 C-196 109.34 -196 108.68 -196 108 C-195.01 108 -194.02 108 -193 108 C-193 107.34 -193 106.68 -193 106 C-192.34 106 -191.68 106 -191 106 C-190.62875 105.071875 -190.62875 105.071875 -190.25 104.125 C-188.76749514 101.60474173 -187.71612936 100.98768341 -185 100 C-184.01 100 -183.02 100 -182 100 C-181.505 98.515 -181.505 98.515 -181 97 C-180.34 97 -179.68 97 -179 97 C-179 96.34 -179 95.68 -179 95 C-178.01 94.67 -177.02 94.34 -176 94 C-175.01 92.515 -175.01 92.515 -174 91 C-172.68 91 -171.36 91 -170 91 C-170 90.34 -170 89.68 -170 89 C-168.68 89 -167.36 89 -166 89 C-166 88.34 -166 87.68 -166 87 C-163.35261084 85.5393715 -162.10551666 85 -159 85 C-159 84.34 -159 83.68 -159 83 C-156.12486944 81.38992689 -153.25549985 80.48201284 -150.09301758 79.59765625 C-146.08097269 78.45202626 -142.10527944 77.18818414 -138.125 75.9375 C-137.25875 75.66873047 -136.3925 75.39996094 -135.5 75.12304688 C-134.67757812 74.86458984 -133.85515625 74.60613281 -133.0078125 74.33984375 C-131.88850342 73.98974243 -131.88850342 73.98974243 -130.74658203 73.63256836 C-128.99730543 73.13865719 -128.99730543 73.13865719 -128 72 C-126.33382885 71.95936168 -124.66611905 71.957279 -123 72 C-123.185625 70.700625 -123.37125 69.40125 -123.5625 68.0625 C-124.05574473 63.32436127 -124.51743058 58.58907794 -123 54 C-118.62721017 50.19757406 -114.81513423 48.86778707 -109.11328125 48.90234375 C-108.17548828 48.90556641 -107.23769531 48.90878906 -106.27148438 48.91210938 C-104.80678711 48.92467773 -104.80678711 48.92467773 -103.3125 48.9375 C-101.83040039 48.94426758 -101.83040039 48.94426758 -100.31835938 48.95117188 C-97.87884526 48.96295697 -95.43945311 48.97940989 -93 49 C-92.69255859 47.95199219 -92.69255859 47.95199219 -92.37890625 46.8828125 C-91.97478516 45.51769531 -91.97478516 45.51769531 -91.5625 44.125 C-91.29566406 43.22007813 -91.02882812 42.31515625 -90.75390625 41.3828125 C-90 39 -90 39 -89 37 C-88.34 37 -87.68 37 -87 37 C-87 36.01 -87 35.02 -87 34 C-86.34 34 -85.68 34 -85 34 C-84.34 32.35 -83.68 30.7 -83 29 C-82.01 29 -81.02 29 -80 29 C-79.731875 28.360625 -79.46375 27.72125 -79.1875 27.0625 C-78 25 -78 25 -75 24 C-74.690625 23.34 -74.38125 22.68 -74.0625 22 C-73.711875 21.34 -73.36125 20.68 -73 20 C-71.66666667 19.66666667 -70.33333333 19.33333333 -69 19 C-68.67 18.34 -68.34 17.68 -68 17 C-67 15 -67 15 -64.875 14.25 C-63.946875 14.12625 -63.946875 14.12625 -63 14 C-62.67 12.68 -62.34 11.36 -62 10 C-61.36191406 9.89042969 -60.72382813 9.78085938 -60.06640625 9.66796875 C-59.24011719 9.50941406 -58.41382813 9.35085937 -57.5625 9.1875 C-56.73878906 9.03667969 -55.91507813 8.88585937 -55.06640625 8.73046875 C-54.38449219 8.48941406 -53.70257813 8.24835938 -53 8 C-52.67 7.01 -52.34 6.02 -52 5 C-47.88366546 2.22939021 -45.09453672 0.3824804 -40 1 C-40 0.34 -40 -0.32 -40 -1 C-11.12884334 -4.08380164 -11.12884334 -4.08380164 0 0 Z " fill="#363131" transform="translate(299,69)"/>
<path d="M0 0 C4.92118327 1.32394038 9.94221858 2.0420592 14.9765625 2.80078125 C14.9765625 3.46078125 14.9765625 4.12078125 14.9765625 4.80078125 C15.55664062 4.84976563 16.13671875 4.89875 16.734375 4.94921875 C21.41579342 5.3972753 25.55141709 6.09880225 29.9765625 7.80078125 C29.9765625 8.46078125 29.9765625 9.12078125 29.9765625 9.80078125 C31.2965625 10.13078125 32.6165625 10.46078125 33.9765625 10.80078125 C33.9765625 11.46078125 33.9765625 12.12078125 33.9765625 12.80078125 C34.9665625 12.80078125 35.9565625 12.80078125 36.9765625 12.80078125 C36.9765625 13.46078125 36.9765625 14.12078125 36.9765625 14.80078125 C37.55921875 14.91550781 38.141875 15.03023437 38.7421875 15.1484375 C41.14179385 15.84902187 42.70517183 16.7827072 44.7265625 18.23828125 C45.34015625 18.67011719 45.95375 19.10195312 46.5859375 19.546875 C47.04484375 19.96066406 47.50375 20.37445313 47.9765625 20.80078125 C47.9765625 21.46078125 47.9765625 22.12078125 47.9765625 22.80078125 C49.6265625 23.46078125 51.2765625 24.12078125 52.9765625 24.80078125 C52.9765625 25.46078125 52.9765625 26.12078125 52.9765625 26.80078125 C54.2965625 26.80078125 55.6165625 26.80078125 56.9765625 26.80078125 C56.9765625 28.45078125 56.9765625 30.10078125 56.9765625 31.80078125 C57.9665625 32.13078125 58.9565625 32.46078125 59.9765625 32.80078125 C60.69605433 34.445334 61.34627663 36.12001894 61.9765625 37.80078125 C62.77459747 39.22564646 63.58872792 40.64155326 64.4140625 42.05078125 C67.35600777 47.25576135 69.9765625 52.74015878 69.9765625 58.80078125 C70.6365625 58.80078125 71.2965625 58.80078125 71.9765625 58.80078125 C72.32735604 70.53287632 72.71393897 83.69471655 65.9765625 93.80078125 C65.6671875 94.99703125 65.3578125 96.19328125 65.0390625 97.42578125 C64.6884375 98.53953125 64.3378125 99.65328125 63.9765625 100.80078125 C62.9865625 101.13078125 61.9965625 101.46078125 60.9765625 101.80078125 C60.5434375 103.47140625 60.5434375 103.47140625 60.1015625 105.17578125 C58.9765625 108.80078125 58.9765625 108.80078125 56.8515625 110.42578125 C55.9028125 110.87953125 54.9540625 111.33328125 53.9765625 111.80078125 C52.68180746 112.67120481 51.39037902 113.54658858 50.1015625 114.42578125 C42.99709843 118.823154 35.06853272 117.92036702 26.9765625 117.80078125 C27.15960938 118.98671875 27.34265625 120.17265625 27.53125 121.39453125 C28.2707178 128.06280622 27.62855889 134.63461913 27.1015625 141.30078125 C27.01003906 142.58726562 26.91851562 143.87375 26.82421875 145.19921875 C26.11390179 154.66344196 26.11390179 154.66344196 24.9765625 155.80078125 C22.28001396 155.87397746 19.60964792 155.89320662 16.9140625 155.86328125 C16.15544922 155.85876953 15.39683594 155.85425781 14.61523438 155.84960938 C12.73564379 155.83778805 10.85609351 155.81985203 8.9765625 155.80078125 C7.72222792 152.03777751 7.86960828 148.52867216 7.9140625 144.61328125 C7.91857422 143.86369141 7.92308594 143.11410156 7.92773438 142.34179688 C7.93949896 140.49475742 7.95743385 138.64775912 7.9765625 136.80078125 C7.3165625 136.80078125 6.6565625 136.80078125 5.9765625 136.80078125 C5.9765625 136.14078125 5.9765625 135.48078125 5.9765625 134.80078125 C3.0065625 134.80078125 0.0365625 134.80078125 -3.0234375 134.80078125 C-4.97375442 138.87801859 -5.23925721 142.11770547 -5.1484375 146.61328125 C-5.13039063 147.77472656 -5.11234375 148.93617188 -5.09375 150.1328125 C-5.07054687 151.01324219 -5.04734375 151.89367187 -5.0234375 152.80078125 C-8.92823999 154.15941098 -12.7336151 153.69547837 -16.7734375 153.36328125 C-17.47082031 153.31107422 -18.16820312 153.25886719 -18.88671875 153.20507812 C-20.59939953 153.07604053 -22.31148816 152.93918511 -24.0234375 152.80078125 C-25.38335488 146.47650526 -26.40023629 140.24052706 -27.0234375 133.80078125 C-28.1371875 133.82140625 -29.2509375 133.84203125 -30.3984375 133.86328125 C-34.0234375 133.80078125 -34.0234375 133.80078125 -36.0234375 132.80078125 C-36.0234375 133.46078125 -36.0234375 134.12078125 -36.0234375 134.80078125 C-36.6834375 134.80078125 -37.3434375 134.80078125 -38.0234375 134.80078125 C-38.0234375 135.79078125 -38.0234375 136.78078125 -38.0234375 137.80078125 C-38.6834375 137.80078125 -39.3434375 137.80078125 -40.0234375 137.80078125 C-40.0234375 143.41078125 -40.0234375 149.02078125 -40.0234375 154.80078125 C-45.3034375 154.80078125 -50.5834375 154.80078125 -56.0234375 154.80078125 C-56.0234375 154.14078125 -56.0234375 153.48078125 -56.0234375 152.80078125 C-56.6834375 152.80078125 -57.3434375 152.80078125 -58.0234375 152.80078125 C-60.03814157 139.49982237 -60.60950027 126.23523198 -61.0234375 112.80078125 C-61.66152344 112.69121094 -62.29960937 112.58164062 -62.95703125 112.46875 C-64.19646484 112.23091797 -64.19646484 112.23091797 -65.4609375 111.98828125 C-66.69650391 111.76205078 -66.69650391 111.76205078 -67.95703125 111.53125 C-68.97990234 111.16966797 -68.97990234 111.16966797 -70.0234375 110.80078125 C-70.3534375 109.81078125 -70.6834375 108.82078125 -71.0234375 107.80078125 C-72.79176565 107.16934989 -72.79176565 107.16934989 -75.0234375 106.80078125 C-78.78979637 105.87840765 -80.5385777 105.44726098 -82.8984375 102.30078125 C-84.0234375 99.80078125 -84.0234375 99.80078125 -84.0234375 97.80078125 C-84.6834375 97.80078125 -85.3434375 97.80078125 -86.0234375 97.80078125 C-86.0234375 97.14078125 -86.0234375 96.48078125 -86.0234375 95.80078125 C-86.6834375 95.80078125 -87.3434375 95.80078125 -88.0234375 95.80078125 C-91.7049717 87.74085101 -93.50254032 80.73595008 -93.4609375 71.86328125 C-93.45835938 71.07139404 -93.45578125 70.27950684 -93.453125 69.46362305 C-93.33004165 64.60029234 -92.49816569 60.46628497 -91.0234375 55.80078125 C-90.46092907 53.32626021 -89.91883559 50.84699942 -89.3984375 48.36328125 C-89.13804687 47.12707031 -88.87765625 45.89085937 -88.609375 44.6171875 C-88.41601562 43.68777344 -88.22265625 42.75835937 -88.0234375 41.80078125 C-87.3634375 41.80078125 -86.7034375 41.80078125 -86.0234375 41.80078125 C-85.9203125 40.89328125 -85.8171875 39.98578125 -85.7109375 39.05078125 C-85.01693937 35.77006281 -84.32258082 34.1918903 -82.0234375 31.80078125 C-81.3634375 31.80078125 -80.7034375 31.80078125 -80.0234375 31.80078125 C-79.6934375 30.48078125 -79.3634375 29.16078125 -79.0234375 27.80078125 C-78.3634375 27.80078125 -77.7034375 27.80078125 -77.0234375 27.80078125 C-76.8790625 27.01703125 -76.7346875 26.23328125 -76.5859375 25.42578125 C-76.0234375 22.80078125 -76.0234375 22.80078125 -75.0234375 20.80078125 C-74.3634375 20.80078125 -73.7034375 20.80078125 -73.0234375 20.80078125 C-73.0234375 20.05828125 -73.0234375 19.31578125 -73.0234375 18.55078125 C-71.81774328 15.23512215 -71.10555795 15.07178468 -68.0234375 13.61328125 C-67.3015625 13.31035156 -66.5796875 13.00742188 -65.8359375 12.6953125 C-63.83989742 11.93715154 -63.83989742 11.93715154 -63.0234375 9.80078125 C-52.16065699 3.90624919 -40.91013407 -0.44751307 -28.51953125 -1.0234375 C-8.54551363 -2.43005846 -8.54551363 -2.43005846 0 0 Z " fill="#FCFCFC" transform="translate(220.0234375,199.19921875)"/>
<path d="M0 0 C0.495 0.495 0.495 0.495 1 1 C2.0725 1.12375 3.145 1.2475 4.25 1.375 C7.94453343 1.99075557 10.0395546 2.75723834 13 5 C13 5.66 13 6.32 13 7 C14.0725 7.28875 15.145 7.5775 16.25 7.875 C19.09815211 8.72944563 21.48772642 9.45398549 24 11 C24.495 11.99 24.495 11.99 25 13 C25.639375 13.103125 26.27875 13.20625 26.9375 13.3125 C27.618125 13.539375 28.29875 13.76625 29 14 C29.66666667 15.66666667 30.33333333 17.33333333 31 19 C32.94603274 19.59070014 32.94603274 19.59070014 35 20 C37.38420461 22.55450494 38 23.4404523 38 27 C39.65 27.66 41.3 28.32 43 29 C43 30.32 43 31.64 43 33 C43.99 33.33 44.98 33.66 46 34 C46 35.32 46 36.64 46 38 C46.66 38 47.32 38 48 38 C48 38.66 48 39.32 48 40 C48.99 40.33 49.98 40.66 51 41 C51.0825 41.94875 51.165 42.8975 51.25 43.875 C51.4975 44.90625 51.745 45.9375 52 47 C53.93330603 48.09166275 53.93330603 48.09166275 56 49 C56.33 49.845625 56.66 50.69125 57 51.5625 C57.33 52.366875 57.66 53.17125 58 54 C60.02463255 54.65213292 60.02463255 54.65213292 62 55 C62.33 55.99 62.66 56.98 63 58 C63.66 58 64.32 58 65 58 C65 58.66 65 59.32 65 60 C67.31 60.66 69.62 61.32 72 62 C72 62.66 72 63.32 72 64 C73.04800781 64.13277344 74.09601563 64.26554687 75.17578125 64.40234375 C76.55470778 64.58057235 77.93361293 64.75896641 79.3125 64.9375 C80.00279297 65.02451172 80.69308594 65.11152344 81.40429688 65.20117188 C84.40142288 65.59210135 87.12450119 66.0415004 90 67 C90 67.66 90 68.32 90 69 C90.845625 68.79375 91.69125 68.5875 92.5625 68.375 C97.16693217 67.87269831 100.87572192 68.93786096 105 71 C105 70.01 105 69.02 105 68 C104.319375 67.9175 103.63875 67.835 102.9375 67.75 C99.1253093 66.77667472 96.35929671 65.04192545 93 63 C93 61.68 93 60.36 93 59 C95.06277107 59.14194764 97.12521031 59.28872216 99.1875 59.4375 C100.33605469 59.51871094 101.48460937 59.59992188 102.66796875 59.68359375 C106.65309893 60.0620176 110.20548421 60.7351614 114 62 C113.97679687 61.04738281 113.95359375 60.09476563 113.9296875 59.11328125 C113.91164063 57.85902344 113.89359375 56.60476562 113.875 55.3125 C113.85179687 54.07113281 113.82859375 52.82976562 113.8046875 51.55078125 C113.98967979 48.18762143 114.54232105 46.0014413 116 43 C118.80272011 43.28993656 119.81421766 43.78669435 121.6875 45.9375 C123.51885249 50.21065582 123.74052678 54.39211355 124 59 C124.61746094 58.7834375 125.23492187 58.566875 125.87109375 58.34375 C131.83640307 56.38255242 136.72880367 55.69655502 143 56 C142.38517439 59.37774562 141.14304154 61.47618303 139.0625 64.1875 C138.53785156 64.88230469 138.01320313 65.57710938 137.47265625 66.29296875 C136 68 136 68 134 69 C133.67 69.99 133.34 70.98 133 72 C135.64 72.33 138.28 72.66 141 73 C141 73.66 141 74.32 141 75 C142.32 75 143.64 75 145 75 C147.3125 76.75 147.3125 76.75 149 79 C148.67 80.32 148.34 81.64 148 83 C143.38 83 138.76 83 134 83 C134.309375 83.969375 134.61875 84.93875 134.9375 85.9375 C136.17967097 90.23664491 136.61684853 94.55342634 137 99 C133.94094199 99.96498182 133.24038754 100.09929051 130.125 98.8125 C126.97937369 96.98803674 123.99117476 95.06533495 121 93 C121 93.99 121 94.98 121 96 C119.1875 98.1875 119.1875 98.1875 117 100 C116.01 100 115.02 100 114 100 C114 100.66 114 101.32 114 102 C112.68 102 111.36 102 110 102 C107.78735334 97.57470667 108.70954706 92.03473859 110 87.4375 C110.33 86.633125 110.66 85.82875 111 85 C110.01 85.66 109.02 86.32 108 87 C105.08203125 87.1953125 105.08203125 87.1953125 101.8125 87.125 C100.72582031 87.10695313 99.63914062 87.08890625 98.51953125 87.0703125 C97.68808594 87.04710937 96.85664063 87.02390625 96 87 C96 85.35 96 83.7 96 82 C97.32 82 98.64 82 100 82 C100 80.68 100 79.36 100 78 C97.36 77.67 94.72 77.34 92 77 C92 76.34 92 75.68 92 75 C91.3915625 75.05800781 90.783125 75.11601562 90.15625 75.17578125 C83.7794718 75.50399778 78.41015039 74.52147159 72.375 72.625 C71.66408203 72.40368408 70.95316406 72.18236816 70.22070312 71.9543457 C68.45666932 71.37040594 66.7243994 70.69227713 65 70 C64.67 69.34 64.34 68.68 64 68 C61.98330173 66.86649466 61.98330173 66.86649466 60 66 C60 65.34 60 64.68 60 64 C59.29875 63.814375 58.5975 63.62875 57.875 63.4375 C52.11635767 60.55817883 49.32451139 55.81127847 47 50 C46.319375 49.67 45.63875 49.34 44.9375 49 C44.298125 48.67 43.65875 48.34 43 48 C42.25 45.375 42.25 45.375 42 43 C41.34 43 40.68 43 40 43 C39.65388672 42.22076172 39.65388672 42.22076172 39.30078125 41.42578125 C37.10729706 36.73536643 34.83975876 33.5588008 31 30 C26 24.52185792 26 24.52185792 26 22 C25.4225 21.87625 24.845 21.7525 24.25 21.625 C21.97664233 20.99351176 20.0746471 20.11141809 18 19 C18 18.34 18 17.68 18 17 C16.824375 16.566875 16.824375 16.566875 15.625 16.125 C13 15 13 15 11 13 C9.00251087 12.26634546 6.9760434 11.61037089 4.9375 11 C3.85339844 10.67 2.76929688 10.34 1.65234375 10 C-0.15556641 9.505 -0.15556641 9.505 -2 9 C-2.66628418 8.81397217 -3.33256836 8.62794434 -4.01904297 8.4362793 C-10.36388005 6.82538055 -16.47946328 6.7339891 -23 6.8125 C-24.04800781 6.81314453 -25.09601563 6.81378906 -26.17578125 6.81445312 C-30.93268485 6.39505381 -30.93268485 6.39505381 -35 8 C-36.99958364 8.04080783 -39.00045254 8.04254356 -41 8 C-41 8.66 -41 9.32 -41 10 C-41.99 10.33 -42.98 10.66 -44 11 C-44.33 11.66 -44.66 12.32 -45 13 C-46.65 13 -48.3 13 -50 13 C-50 13.66 -50 14.32 -50 15 C-50.56589844 15.26554687 -51.13179687 15.53109375 -51.71484375 15.8046875 C-52.81505859 16.33449219 -52.81505859 16.33449219 -53.9375 16.875 C-54.66839844 17.22304687 -55.39929688 17.57109375 -56.15234375 17.9296875 C-58.16332459 18.8684977 -58.16332459 18.8684977 -59 21 C-59.804375 21.474375 -60.60875 21.94875 -61.4375 22.4375 C-64.2355972 23.89664045 -64.2355972 23.89664045 -66 27 C-68.625 27.6875 -68.625 27.6875 -71 28 C-71.33 29.65 -71.66 31.3 -72 33 C-72.99 33 -73.98 33 -75 33 C-75 33.66 -75 34.32 -75 35 C-75.66 35 -76.32 35 -77 35 C-77 35.99 -77 36.98 -77 38 C-77.66 38 -78.32 38 -79 38 C-80.73662334 41.22515763 -81.8905928 44.51329166 -83 48 C-81.35 48 -79.7 48 -78 48 C-78 48.33 -78 48.66 -78 49 C-82.95 48.67 -87.9 48.34 -93 48 C-91.68 44.37 -90.36 40.74 -89 37 C-88.34 37 -87.68 37 -87 37 C-87 36.01 -87 35.02 -87 34 C-86.34 34 -85.68 34 -85 34 C-84.34 32.35 -83.68 30.7 -83 29 C-82.01 29 -81.02 29 -80 29 C-79.731875 28.360625 -79.46375 27.72125 -79.1875 27.0625 C-78 25 -78 25 -75 24 C-74.690625 23.34 -74.38125 22.68 -74.0625 22 C-73.5365625 21.01 -73.5365625 21.01 -73 20 C-71.66666667 19.66666667 -70.33333333 19.33333333 -69 19 C-68.67 18.34 -68.34 17.68 -68 17 C-67 15 -67 15 -64.875 14.25 C-63.946875 14.12625 -63.946875 14.12625 -63 14 C-62.67 12.68 -62.34 11.36 -62 10 C-61.36191406 9.89042969 -60.72382813 9.78085938 -60.06640625 9.66796875 C-59.24011719 9.50941406 -58.41382813 9.35085937 -57.5625 9.1875 C-56.73878906 9.03667969 -55.91507813 8.88585937 -55.06640625 8.73046875 C-54.38449219 8.48941406 -53.70257813 8.24835938 -53 8 C-52.67 7.01 -52.34 6.02 -52 5 C-47.88366546 2.22939021 -45.09453672 0.3824804 -40 1 C-40 0.34 -40 -0.32 -40 -1 C-11.12884334 -4.08380164 -11.12884334 -4.08380164 0 0 Z " fill="#5D524B" transform="translate(299,69)"/>
<path d="M0 0 C2.80272011 0.28993656 3.81421766 0.78669435 5.6875 2.9375 C7.51885249 7.21065582 7.74052678 11.39211355 8 16 C8.61746094 15.7834375 9.23492187 15.566875 9.87109375 15.34375 C15.83640307 13.38255242 20.72880367 12.69655502 27 13 C26.38517439 16.37774562 25.14304154 18.47618303 23.0625 21.1875 C22.53785156 21.88230469 22.01320313 22.57710937 21.47265625 23.29296875 C20 25 20 25 18 26 C17.505 27.485 17.505 27.485 17 29 C19.64 29.33 22.28 29.66 25 30 C25 30.66 25 31.32 25 32 C26.32 32 27.64 32 29 32 C31.3125 33.75 31.3125 33.75 33 36 C32.67 37.32 32.34 38.64 32 40 C27.38 40 22.76 40 18 40 C18.309375 40.969375 18.61875 41.93875 18.9375 42.9375 C20.17967097 47.23664491 20.61684853 51.55342634 21 56 C17.94094199 56.96498182 17.24038754 57.09929051 14.125 55.8125 C10.97937369 53.98803674 7.99117476 52.06533495 5 50 C5 50.99 5 51.98 5 53 C3.1875 55.1875 3.1875 55.1875 1 57 C0.01 57 -0.98 57 -2 57 C-2 57.66 -2 58.32 -2 59 C-3.32 59 -4.64 59 -6 59 C-8.21264666 54.57470667 -7.29045294 49.03473859 -6 44.4375 C-5.67 43.633125 -5.34 42.82875 -5 42 C-5.99 42.66 -6.98 43.32 -8 44 C-10.91796875 44.1953125 -10.91796875 44.1953125 -14.1875 44.125 C-15.27417969 44.10695312 -16.36085938 44.08890625 -17.48046875 44.0703125 C-18.31191406 44.04710937 -19.14335937 44.02390625 -20 44 C-20 42.35 -20 40.7 -20 39 C-18.68 39 -17.36 39 -16 39 C-16 38.01 -16 37.02 -16 36 C-15.34 36 -14.68 36 -14 36 C-14 35.34 -14 34.68 -14 34 C-13.34 34 -12.68 34 -12 34 C-11.67 33.01 -11.34 32.02 -11 31 C-10.34 31 -9.68 31 -9 31 C-9.66 29.02 -10.32 27.04 -11 25 C-11.680625 24.9175 -12.36125 24.835 -13.0625 24.75 C-16.8746907 23.77667472 -19.64070329 22.04192545 -23 20 C-23 18.68 -23 17.36 -23 16 C-20.93722893 16.14194764 -18.87478969 16.28872216 -16.8125 16.4375 C-15.66394531 16.51871094 -14.51539063 16.59992188 -13.33203125 16.68359375 C-9.34690107 17.0620176 -5.79451579 17.7351614 -2 19 C-2.02320313 18.04738281 -2.04640625 17.09476563 -2.0703125 16.11328125 C-2.08835937 14.85902344 -2.10640625 13.60476562 -2.125 12.3125 C-2.14820313 11.07113281 -2.17140625 9.82976562 -2.1953125 8.55078125 C-2.01032021 5.18762143 -1.45767895 3.0014413 0 0 Z " fill="#EAA637" transform="translate(415,112)"/>
<path d="M0 0 C0 0.66 0 1.32 0 2 C0.99 2.33 1.98 2.66 3 3 C3.94921875 4.7421875 3.94921875 4.7421875 4.6875 6.875 C4.93886719 7.57367188 5.19023437 8.27234375 5.44921875 8.9921875 C6 11 6 11 6 14 C6.66 14 7.32 14 8 14 C10.37656682 21.96848875 10.77543327 29.82918883 9 38 C7.09559942 40.77404015 5.08774447 41.7922695 2 43 C1.34128906 43.33386719 0.68257812 43.66773438 0.00390625 44.01171875 C-3.63168474 45.69131926 -6.09718563 46.28910083 -10 45.1875 C-10.99 44.795625 -11.98 44.40375 -13 44 C-13 43.34 -13 42.68 -13 42 C-13.61875 41.731875 -14.2375 41.46375 -14.875 41.1875 C-17.69281227 39.6128402 -18.76024431 37.8465448 -19.6328125 34.765625 C-20.61335172 29.7539801 -21.32608745 25.10870338 -21 20 C-20.67 19.67 -20.34 19.34 -20 19 C-19.855625 17.865625 -19.71125 16.73125 -19.5625 15.5625 C-19 12 -19 12 -17 10 C-16.3574765 7.93125966 -16.3574765 7.93125966 -16 6 C-15.34 6 -14.68 6 -14 6 C-14 5.01 -14 4.02 -14 3 C-13.34 3 -12.68 3 -12 3 C-11.67 1.68 -11.34 0.36 -11 -1 C-6.98204891 -2.33931703 -3.77343218 -1.88671609 0 0 Z " fill="#3B3535" transform="translate(187,244)"/>
<path d="M0 0 C1.16015625 0.10054687 1.16015625 0.10054687 2.34375 0.203125 C4.89940261 0.85129776 5.90109613 1.67962448 7.5 3.75 C7.5 4.41 7.5 5.07 7.5 5.75 C8.49 5.75 9.48 5.75 10.5 5.75 C10.5 6.41 10.5 7.07 10.5 7.75 C11.16 7.75 11.82 7.75 12.5 7.75 C16.36382803 15.47765607 16.0027986 23.29911592 15.5 31.75 C15.17 32.41 14.84 33.07 14.5 33.75 C13.84 33.75 13.18 33.75 12.5 33.75 C12.355625 34.348125 12.21125 34.94625 12.0625 35.5625 C11.6127561 37.31150404 11.07107659 39.03677023 10.5 40.75 C9.51 40.75 8.52 40.75 7.5 40.75 C7.5 41.41 7.5 42.07 7.5 42.75 C2.70287002 44.31640979 -1.39043662 45.33956501 -6.5 44.75 C-8.4375 42.9375 -8.4375 42.9375 -9.5 40.75 C-9.5 39.76 -9.5 38.77 -9.5 37.75 C-10.16 37.75 -10.82 37.75 -11.5 37.75 C-15.48493985 27.92996964 -14.73289968 19.09755085 -13.5 8.75 C-12.84 8.75 -12.18 8.75 -11.5 8.75 C-10.84 6.77 -10.18 4.79 -9.5 2.75 C-8.84 2.75 -8.18 2.75 -7.5 2.75 C-7.5 2.09 -7.5 1.43 -7.5 0.75 C-4.51786685 -0.24404438 -3.05541462 -0.30554146 0 0 Z " fill="#3C3635" transform="translate(236.5,246.25)"/>
<path d="M0 0 C0.2475 0.639375 0.495 1.27875 0.75 1.9375 C1.80770763 4.13144244 1.80770763 4.13144244 3.875 4.8125 C6.17030283 5.01502672 7.81733924 4.70156953 10 4 C9.67 5.32 9.34 6.64 9 8 C8.34 8 7.68 8 7 8 C7 9.32 7 10.64 7 12 C7.99 12.33 8.98 12.66 10 13 C10 13.66 10 14.32 10 15 C11.98 15 13.96 15 16 15 C15.67 16.32 15.34 17.64 15 19 C13.576875 19.12375 13.576875 19.12375 12.125 19.25 C8.89538209 19.65074923 8.89538209 19.65074923 7.625 22.0625 C7.315625 23.0215625 7.315625 23.0215625 7 24 C7 23.34 7 22.68 7 22 C4.05272465 22.10169161 4.05272465 22.10169161 1 23 C-0.45291273 25.46255685 -0.45291273 25.46255685 -1 28 C-1.99 28 -2.98 28 -4 28 C-4.125 21.25 -4.125 21.25 -3 19 C-5.31 18.67 -7.62 18.34 -10 18 C-10 17.34 -10 16.68 -10 16 C-7.4385343 13.70351351 -6.52032428 13 -3 13 C-3 12.34 -3 11.68 -3 11 C-3.66 11 -4.32 11 -5 11 C-5 10.34 -5 9.68 -5 9 C-5.99 9 -6.98 9 -8 9 C-8 8.34 -8 7.68 -8 7 C-5.36 7.33 -2.72 7.66 0 8 C-0.2784375 6.2984375 -0.2784375 6.2984375 -0.5625 4.5625 C-0.706875 3.386875 -0.85125 2.21125 -1 1 C-0.67 0.67 -0.34 0.34 0 0 Z " fill="#FDDA4E" transform="translate(418,130)"/>
<path d="M0 0 C2.61597369 2.43556171 2.97961136 3.64659694 3.1875 7.25 C3.125625 8.1575 3.06375 9.065 3 10 C-0.63 10.33 -4.26 10.66 -8 11 C-9.60725635 7.78548731 -9.05748185 4.56387464 -9 1 C-5.67914262 -1.09091021 -3.71326588 -1.33296724 0 0 Z " fill="#4E4948" transform="translate(208,303)"/>
<path d="M0 0 C0 0.66 0 1.32 0 2 C-2.05078125 2.22786458 -4.1015625 2.45572917 -6.15234375 2.68359375 C-8.01140229 2.81886614 -8.01140229 2.81886614 -9 4 C-11.53049402 4.07313567 -14.03304837 4.09247527 -16.5625 4.0625 C-17.27341797 4.05798828 -17.98433594 4.05347656 -18.71679688 4.04882812 C-20.47790013 4.03700864 -22.23896036 4.01907263 -24 4 C-24 3.67 -24 3.34 -24 3 C-20.04 3 -16.08 3 -12 3 C-12 2.34 -12 1.68 -12 1 C-10.56274129 0.83126522 -9.12518162 0.66509263 -7.6875 0.5 C-6.48673828 0.36078125 -6.48673828 0.36078125 -5.26171875 0.21875 C-3 0 -3 0 0 0 Z " fill="#6E5CC2" transform="translate(241,445)"/>
<path d="M0 0 C0.33 0.66 0.66 1.32 1 2 C-0.2866832 5.86004961 -2.85557788 7.58121375 -6 10 C-6.33 10.66 -6.66 11.32 -7 12 C-7.99 11.67 -8.98 11.34 -10 11 C-9.278125 10.29875 -8.55625 9.5975 -7.8125 8.875 C-5.00176187 6.07229255 -2.50483774 3.07737208 0 0 Z " fill="#473E5D" transform="translate(93,187)"/>
<path d="M0 0 C2.31 0.33 4.62 0.66 7 1 C6.34 2.65 5.68 4.3 5 6 C2.525 5.01 2.525 5.01 0 4 C0 2.68 0 1.36 0 0 Z " fill="#DF9D4D" transform="translate(392,128)"/>
<path d="M0 0 C0.33 0 0.66 0 1 0 C1 1.65 1 3.3 1 5 C2.1446875 4.9071875 2.1446875 4.9071875 3.3125 4.8125 C6 5 6 5 7.8125 6.5 C8.204375 6.995 8.59625 7.49 9 8 C7.35 8 5.7 8 4 8 C4 7.34 4 6.68 4 6 C2.35 5.67 0.7 5.34 -1 5 C-0.67 3.35 -0.34 1.7 0 0 Z " fill="#5E509E" transform="translate(245,138)"/>
<path d="M0 0 C0.99 0.33 1.98 0.66 3 1 C2.6875 2.9375 2.6875 2.9375 2 5 C1.01 5.33 0.02 5.66 -1 6 C-1.042721 4.33388095 -1.04063832 2.66617115 -1 1 C-0.67 0.67 -0.34 0.34 0 0 Z " fill="#524D4C" transform="translate(291,236)"/>
<path d="M0 0 C0.33 0 0.66 0 1 0 C1 1.65 1 3.3 1 5 C-1.31 5 -3.62 5 -6 5 C-6.33 4.34 -6.66 3.68 -7 3 C-5.02 3 -3.04 3 -1 3 C-0.67 2.01 -0.34 1.02 0 0 Z " fill="#A981B1" transform="translate(412,126)"/>
<path d="M0 0 C0.99 0.33 1.98 0.66 3 1 C3 2.32 3 3.64 3 5 C3.99 5.33 4.98 5.66 6 6 C6 6.66 6 7.32 6 8 C4.68 7.67 3.36 7.34 2 7 C1.34 4.69 0.68 2.38 0 0 Z " fill="#695A81" transform="translate(339,97)"/>
</svg>
