<?xml version="1.0" encoding="UTF-8"?>
<svg version="1.1" xmlns="http://www.w3.org/2000/svg" width="500" height="500">
<path d="M0 0 C165 0 330 0 500 0 C500 165 500 330 500 500 C335 500 170 500 0 500 C0 335 0 170 0 0 Z " fill="#826DF8" transform="translate(0,0)"/>
<path d="M0 0 C1.00675781 0.55816406 2.01351562 1.11632813 3.05078125 1.69140625 C11.58887641 6.70315942 18.55931282 13.62471853 24.75 21.3125 C26.58296663 23.50187681 27.97044592 24.76830917 30.1875 26.4375 C34.43060109 29.94586497 37.14944614 34.47383497 40.09204102 39.05419922 C42.90187782 43.41281086 45.88424329 47.51639247 49.125 51.5625 C52.52515609 55.82724665 55.30886633 60.17686534 57.875 65 C61.73481329 72.17119986 66.8763331 77.61327064 72.50830078 83.4296875 C81.4409522 92.83309404 90.86736871 103.64923202 93.8125 116.5625 C95.3731859 123.12986627 98.29964486 129.3354415 101.1328125 135.44140625 C103.36719912 142.03385327 103.0890095 150.40065255 100.375 156.8125 C99.622143 158.2296426 98.82981945 159.62650574 98 161 C97.59910156 161.70125 97.19820313 162.4025 96.78515625 163.125 C88.5271569 176.52928881 75.77914604 187.59109065 63.625 197.375 C54.94136952 204.36734198 46.84970571 212.09009716 39 220 C37.82626016 221.16350672 36.65171597 222.32620233 35.4765625 223.48828125 C27.53512692 231.27329402 27.53512692 231.27329402 20.0625 239.5 C15.0747478 245.37842224 9.10390489 250.06600208 2.859375 254.54296875 C0.92545898 255.99817071 0.92545898 255.99817071 -0.90234375 257.90234375 C-3.24658821 260.24658821 -5.73186149 262.29442864 -8.3125 264.375 C-11.39801535 266.86371172 -14.41233701 269.36209314 -17.3125 272.0625 C-31.18611862 284.01566544 -54.12153533 294.70451712 -72.5703125 294.46875 C-75.74268503 293.85671671 -78.15104389 292.51967832 -81 291 C-82.16273438 290.46503906 -83.32546875 289.93007813 -84.5234375 289.37890625 C-99.54753271 282.37520737 -111.92060818 272.19778554 -124.37597656 261.40185547 C-126.06229302 259.94622873 -127.76006328 258.50498726 -129.4609375 257.06640625 C-132.99737439 254.07091667 -136.50628547 251.04517736 -140 248 C-140.87567627 247.23937256 -140.87567627 247.23937256 -141.76904297 246.46337891 C-148.32278741 240.73226498 -154.00361481 235.44763504 -158.33984375 227.765625 C-158.88769531 227.18296875 -159.43554688 226.6003125 -160 226 C-161.99999825 225.9973545 -164.00000164 225.9974359 -166 226 C-168.01953125 224.26953125 -168.01953125 224.26953125 -169.8125 221.8125 C-170.8334375 220.44158203 -170.8334375 220.44158203 -171.875 219.04296875 C-174.43493547 215.3771788 -176.93546688 211.67250995 -179.43066406 207.96240234 C-182.56550957 203.40153563 -186.15359499 199.46061672 -189.96826172 195.46508789 C-193.96756582 191.20673956 -197.13923306 186.62346371 -200.24609375 181.69140625 C-201.96276692 178.95942959 -201.96276692 178.95942959 -204.0546875 176.4453125 C-209.17112062 170.01381224 -212.76011693 162.36128626 -212 154 C-210.95389959 151.0166766 -209.66327186 148.72171759 -208 146 C-207.34 146 -206.68 146 -206 146 C-205.76667969 145.47664062 -205.53335938 144.95328125 -205.29296875 144.4140625 C-203.57257655 141.20197071 -201.45162408 138.31520178 -199.3125 135.375 C-198.39914388 134.11240989 -197.48638531 132.84938729 -196.57421875 131.5859375 C-196.12997559 130.97073242 -195.68573242 130.35552734 -195.22802734 129.72167969 C-193.65042339 127.50989776 -192.14141766 125.25403316 -190.625 123 C-184.7185502 114.53037387 -177.6687429 106.84247142 -170.625 99.3125 C-165.61365422 93.81470491 -161.3140916 87.79476749 -156.95947266 81.7746582 C-148.20810382 69.68052904 -148.20810382 69.68052904 -143.8125 66.4375 C-138.76714605 62.25863075 -135.09851208 56.82556341 -131.20361328 51.60888672 C-126.02339341 44.68441431 -120.56079738 38.42085286 -114.37890625 32.37109375 C-111.68414897 29.68518625 -109.18573017 26.88335186 -106.7109375 23.99609375 C-104.8338788 21.80619193 -102.9202996 19.6520599 -101 17.5 C-98.4927057 14.6895204 -96.01680613 11.85674432 -93.5625 9 C-70.01423809 -17.74485854 -30.07137185 -17.66069604 0 0 Z " fill="#FDFDFD" transform="translate(324,62)"/>
<path d="M0 0 C0.86238281 0.60457031 1.72476563 1.20914063 2.61328125 1.83203125 C11.24241769 8.31347151 16.39904896 16.12992945 21.3125 25.625 C22.01644897 26.97295654 22.01644897 26.97295654 22.73461914 28.34814453 C26.61455864 35.92972592 29.92333722 43.69178356 33.00708008 51.62744141 C34.99347126 56.71819268 37.22621703 61.29488467 40 66 C40.80963628 67.79550254 41.58238088 69.60821972 42.3125 71.4375 C43.73848973 74.99356189 45.21512734 78.49337974 46.875 81.9453125 C50.62035271 89.82482835 53.22907334 96.09934799 52 105 C51.91363281 105.90105469 51.82726562 106.80210937 51.73828125 107.73046875 C50.77666211 115.06152216 47.84496668 120.74890637 44 127 C43.34 127 42.68 127 42 127 C41.79375 127.825 41.5875 128.65 41.375 129.5 C36.12906633 142.85328571 21.55323932 154.01646644 8.9375 160.0625 C4.1601398 162.08497131 -0.80460831 163.5084054 -5.76586914 164.99975586 C-12.75435757 167.14308827 -19.32069709 170.03332631 -26 173 C-41.08809754 179.5147226 -57.7625914 179.18673237 -73.9074707 179.18530273 C-76.69172142 179.18750334 -79.47558392 179.20575598 -82.25976562 179.22460938 C-84.052082 179.22754177 -85.84440022 179.2295276 -87.63671875 179.23046875 C-88.45774582 179.23765427 -89.27877289 179.24483978 -90.12467957 179.25224304 C-95.41626722 179.23149704 -99.90391519 178.42664103 -105 177 C-106.89383771 176.77424451 -108.78969264 176.56451001 -110.6875 176.375 C-120.40122373 174.80113084 -129.38659533 169.03246525 -135.40234375 161.2578125 C-135.92957031 160.51273438 -136.45679688 159.76765625 -137 159 C-137.62003906 158.19304687 -138.24007812 157.38609375 -138.87890625 156.5546875 C-144.08896557 149.07096236 -146.97869638 141.09689959 -149.875 132.5 C-150.25640137 131.37295654 -150.63780273 130.24591309 -151.03076172 129.0847168 C-154.86007619 117.22072609 -156.35110721 105.75174382 -156.3125 93.3125 C-156.32861328 92.26255859 -156.34472656 91.21261719 -156.36132812 90.13085938 C-156.36561642 83.23098816 -155.34921659 77.47474123 -153 71 C-152.64679688 69.9275 -152.29359375 68.855 -151.9296875 67.75 C-142.06388681 42.02583819 -106.5255202 24.25627383 -82.53149414 13.56005859 C-19.37369678 -13.77166397 -19.37369678 -13.77166397 0 0 Z " fill="#826DF8" transform="translate(328,111)"/>
<path d="M0 0 C5.74323984 4.32917516 10.85678575 9.19277927 15.90527344 14.30273438 C16.69490479 15.09695801 17.48453613 15.89118164 18.2980957 16.70947266 C23.1169691 21.60358645 27.60968213 26.56972711 31.83886719 31.98242188 C34.23415433 34.96181496 36.79987903 37.75873023 39.40527344 40.55273438 C43.61932827 45.08554185 47.58824415 49.76228369 51.46777344 54.58398438 C54.3345496 58.07557072 57.30341667 61.46763579 60.28027344 64.86523438 C66.41693007 71.90478398 72.24853352 79.12359903 77.90527344 86.55273438 C78.44796875 87.25881836 78.99066406 87.96490234 79.54980469 88.69238281 C96.76067068 111.15780779 118.91687105 140.58733816 115.90527344 170.55273438 C113.42197674 187.49236545 103.86482198 200.08230157 92.90527344 212.55273438 C92.40866211 213.11847168 91.91205078 213.68420898 91.40039062 214.26708984 C85.39057927 221.04900917 79.04241779 227.50276994 72.65527344 233.92773438 C72.00582764 234.58193359 71.35638184 235.23613281 70.68725586 235.91015625 C66.88748606 239.69689827 62.97376813 243.2878864 58.9140625 246.79345703 C55.49330614 249.7893212 52.20605935 252.92601335 48.90527344 256.05273438 C43.67266979 261.00939994 38.36135681 265.84286489 32.90527344 270.55273438 C32.32310059 271.05708008 31.74092773 271.56142578 31.14111328 272.08105469 C23.49363233 278.69401918 15.76821211 285.19659367 7.90527344 291.55273438 C6.74224275 292.50943717 5.57949866 293.46648842 4.41699219 294.42382812 C-4.07633871 301.37474335 -12.79627407 307.72154377 -22.09472656 313.55273438 C-22.6704541 313.91882813 -23.24618164 314.28492188 -23.83935547 314.66210938 C-33.09309919 320.48824742 -42.62496015 324.48920545 -53.09472656 327.55273438 C-53.72612549 327.75141113 -54.35752441 327.95008789 -55.00805664 328.15478516 C-62.87233512 330.29967428 -71.07821108 329.76925683 -79.15722656 329.67773438 C-80.7060489 329.66768446 -82.25487755 329.65856216 -83.80371094 329.65039062 C-87.56754085 329.62853644 -91.33106279 329.5941178 -95.09472656 329.55273438 C-96.25193174 333.2787709 -95.64139267 335.75296286 -94.69238281 339.51757812 C-94.19950811 342.02060849 -93.88514045 344.39775513 -93.65332031 346.93164062 C-93.58024658 347.72038574 -93.50717285 348.50913086 -93.43188477 349.32177734 C-93.29283198 350.90688315 -93.16717526 352.49323401 -93.05639648 354.08056641 C-92.49335274 360.33675788 -90.57320852 364.19099251 -85.93847656 368.60742188 C-81.47294379 372.07565233 -76.95971953 375.34238462 -72.21972656 378.42773438 C-56.77677097 388.52966776 -56.77677097 388.52966776 -52.09472656 395.55273438 C-52.28222656 398.11523438 -52.28222656 398.11523438 -53.09472656 400.55273438 C-57.52918007 403.50903671 -60.88663994 403.52255945 -66.09472656 402.55273438 C-69.88795826 401.08246149 -73.51280699 399.28091415 -77.11669922 397.39892578 C-82.32281235 394.57094627 -82.32281235 394.57094627 -88.09472656 394.55273438 C-90.15660318 396.09455653 -90.15660318 396.09455653 -91.96972656 398.11523438 C-95.64574485 401.52177012 -95.64574485 401.52177012 -99.71972656 401.80273438 C-102.69979806 400.69900419 -103.9476924 400.00144829 -106.21972656 397.99023438 C-108.81850951 395.46260921 -108.81850951 395.46260921 -111.53222656 394.80273438 C-117.02628932 396.41075274 -120.49401998 401.80189213 -123.96972656 406.11523438 C-127.38830023 410.13547701 -131.27499622 413.3475198 -136.09472656 415.55273438 C-140.09472656 415.55273438 -140.09472656 415.55273438 -143.09472656 414.55273438 C-144.63213834 411.47791082 -144.69080383 408.86692398 -144.09472656 405.55273438 C-140.77839834 396.90853457 -134.75651998 390.61344007 -128.49072266 384.04345703 C-126.27503406 381.6774209 -124.17724682 379.22363129 -122.09472656 376.74023438 C-121.39347656 375.90878906 -120.69222656 375.07734375 -119.96972656 374.22070312 C-115.90994532 368.44397273 -114.63950015 363.52989807 -114.73144531 356.52929688 C-114.73094681 355.783685 -114.7304483 355.03807312 -114.72993469 354.26986694 C-114.7322616 352.70169392 -114.74190783 351.13351618 -114.75854492 349.56542969 C-114.78209441 347.19105861 -114.77910037 344.81781744 -114.77246094 342.44335938 C-114.44275249 327.76379821 -114.44275249 327.76379821 -121.14941406 315.27929688 C-124.21384861 312.55945738 -127.56709993 310.27919445 -130.91821289 307.9284668 C-134.15964546 305.50418117 -137.14681154 302.90296629 -140.09863281 300.14257812 C-140.6562027 299.62423401 -141.21377258 299.10588989 -141.78823853 298.57183838 C-147.72235405 293.0209995 -153.49185771 287.30697464 -159.2265625 281.55126953 C-160.98616136 279.78624894 -162.75113053 278.02672305 -164.51660156 276.26757812 C-169.73912799 271.04779808 -174.87481614 265.82151655 -179.66748047 260.19824219 C-181.77074254 257.7733386 -184.04727437 255.54238903 -186.34472656 253.30273438 C-190.90366323 248.85706321 -190.90366323 248.85706321 -192.42700195 246.43066406 C-193.9331426 244.35514524 -193.9331426 244.35514524 -196.29858398 244.109375 C-197.19424072 244.14224609 -198.08989746 244.17511719 -199.01269531 244.20898438 C-200.08567871 244.24507813 -201.15866211 244.28117187 -202.26416016 244.31835938 C-209.39516207 244.75467307 -216.51718826 245.27167161 -223.63916016 245.83584595 C-249.32371811 247.84832779 -249.32371811 247.84832779 -261.59472656 247.86523438 C-262.44462158 247.87039063 -263.2945166 247.87554687 -264.17016602 247.88085938 C-271.05465025 247.80220363 -278.30015181 247.37776279 -284.15722656 243.55273438 C-286.48024818 241.15477657 -287.02695606 240.15658693 -287.39941406 236.83789062 C-287.02454172 232.79599777 -285.46412965 230.2482538 -283.21972656 226.99023438 C-282.8169751 226.38598633 -282.41422363 225.78173828 -281.99926758 225.15917969 C-277.6560832 218.73263842 -272.92062275 212.62047355 -268.09472656 206.55273438 C-267.42699219 205.70195312 -266.75925781 204.85117188 -266.07128906 203.97460938 C-257.13637832 192.66921211 -247.70739987 181.78154132 -237.92285156 171.20507812 C-231.5779551 164.28644103 -225.76493064 157.02681666 -220.09472656 149.55273438 C-219.67046387 148.99602051 -219.24620117 148.43930664 -218.80908203 147.86572266 C-213.55616734 140.91725988 -208.99078914 133.76921348 -204.71972656 126.17773438 C-199.55651241 117.02326792 -193.59098198 108.79580898 -187.09472656 100.55273438 C-186.18996572 99.3843261 -185.28629095 98.21507589 -184.38378906 97.04492188 C-177.65926331 88.36390164 -170.66319822 79.90769066 -163.66064453 71.45068359 C-161.60214456 68.95570717 -159.56782119 66.44141361 -157.53222656 63.92773438 C-153.48293225 58.97109819 -149.30571814 54.13206281 -145.09790039 49.31005859 C-142.41197706 46.23187928 -139.74097961 43.14527689 -137.12207031 40.00976562 C-104.29455977 0.79345278 -50.27576234 -34.73598125 0 0 Z M-99.78222656 32.67773438 C-100.88666008 33.96917288 -101.99079823 35.26086401 -103.09472656 36.55273438 C-108.39888728 42.71067208 -113.90084002 48.65320879 -119.48925781 54.55273438 C-125.51764174 60.94307096 -131.3664402 67.37140969 -136.53222656 74.49023438 C-141.19490665 80.77057898 -145.8809324 86.99368123 -152.02832031 91.88867188 C-155.33750999 94.59844944 -157.59178341 97.7135007 -159.96972656 101.24023438 C-160.84006274 102.49166933 -161.71247576 103.74166233 -162.58691406 104.99023438 C-163.01198242 105.59867187 -163.43705078 106.20710938 -163.875 106.83398438 C-168.18516397 112.9075541 -173.00463336 118.50558724 -178.03222656 123.99023438 C-186.38578685 133.11821286 -193.62296017 142.55078855 -200.49047852 152.828125 C-202.85714842 156.35758017 -205.20944513 159.77998859 -207.98535156 163.00195312 C-210.30715251 165.25794958 -210.30715251 165.25794958 -210.09472656 167.55273438 C-211.08472656 167.88273438 -212.07472656 168.21273437 -213.09472656 168.55273438 C-215.98704413 173.40769601 -216.57755228 177.21481304 -215.80175781 182.79882812 C-213.7613872 190.74612801 -209.51381237 197.4885193 -204.09472656 203.55273438 C-202.85503613 205.27437188 -201.6271205 207.00451354 -200.40722656 208.74023438 C-197.56729887 212.69908292 -194.57304295 216.27043406 -191.21972656 219.80273438 C-187.25317468 224.04999609 -183.99920024 228.44818424 -180.84472656 233.30273438 C-176.04250048 240.88554515 -176.04250048 240.88554515 -170.09472656 247.55273438 C-169.13050781 247.49859375 -168.16628906 247.44445312 -167.17285156 247.38867188 C-164.09472656 247.55273438 -164.09472656 247.55273438 -162.03222656 249.72070312 C-161.39285156 250.71714844 -160.75347656 251.71359375 -160.09472656 252.74023438 C-152.79506273 263.39851163 -142.61500544 271.49474182 -132.59863281 279.51367188 C-130.23409185 281.4392419 -127.9734339 283.43694748 -125.71972656 285.49023438 C-120.1116641 290.52645505 -114.12551349 295.04256202 -108.09472656 299.55273438 C-107.2375 300.20628906 -106.38027344 300.85984375 -105.49707031 301.53320312 C-100.03135792 305.55916689 -94.38702623 308.46891827 -88.17285156 311.19335938 C-85.09472656 312.55273437 -85.09472656 312.55273437 -82.00878906 314.19335938 C-73.6763005 318.08036476 -64.590271 315.02928367 -56.34472656 312.16210938 C-39.51556084 305.95616009 -24.58168561 297.46236718 -11.71582031 284.93554688 C-9.27988052 282.72105615 -6.93706822 281.18105892 -4.09472656 279.55273438 C-2.40538734 277.90905297 -0.74212732 276.23844678 0.90527344 274.55273438 C2.12501287 273.45879767 3.35511985 272.37636159 4.59277344 271.30273438 C5.27597656 270.70847656 5.95917969 270.11421875 6.66308594 269.50195312 C7.77296875 268.53708984 7.77296875 268.53708984 8.90527344 267.55273438 C14.29321514 262.8657318 19.38025882 258.18912344 23.98730469 252.72851562 C28.05413292 248.11502616 32.52957226 243.87035102 36.90527344 239.55273438 C37.69417969 238.75738281 38.48308594 237.96203125 39.29589844 237.14257812 C47.55066812 228.94959564 56.07664343 221.1021799 65.15136719 213.82617188 C87.09942533 195.74415843 87.09942533 195.74415843 98.36230469 170.60742188 C99.02887435 160.86872612 95.92076123 153.76477972 91.85058594 145.09570312 C90.10303671 141.29397394 89.18073532 137.63661193 88.37109375 133.54614258 C85.99840618 123.39258179 76.3311796 114.0214757 69.46777344 106.61523438 C63.29797525 99.95038084 57.27331607 93.43816535 53.09277344 85.30273438 C50.30868135 79.91711362 46.8120426 75.44325246 43.01245117 70.75830078 C40.13716359 67.19104138 37.55652167 63.59128116 35.15527344 59.67773438 C31.45629488 53.67461881 27.33065221 48.57388335 21.90527344 44.05273438 C19.4601325 42.01511693 17.62514668 40.14637741 15.59277344 37.74023438 C1.43009787 21.37038859 -17.6335172 12.29608191 -39.09472656 10.55273438 C-44.32518664 10.32399705 -49.54792691 10.24939123 -54.78222656 10.24023438 C-56.0707251 10.23483643 -57.35922363 10.22943848 -58.68676758 10.22387695 C-77.9154003 10.3685288 -87.36902211 18.57055795 -99.78222656 32.67773438 Z " fill="#020203" transform="translate(328.0947265625,40.447265625)"/>
<path d="M0 0 C0.86238281 0.60457031 1.72476563 1.20914063 2.61328125 1.83203125 C11.24241769 8.31347151 16.39904896 16.12992945 21.3125 25.625 C22.01644897 26.97295654 22.01644897 26.97295654 22.73461914 28.34814453 C26.61455864 35.92972592 29.92333722 43.69178356 33.00708008 51.62744141 C34.99347126 56.71819268 37.22621703 61.29488467 40 66 C40.80963628 67.79550254 41.58238088 69.60821972 42.3125 71.4375 C43.73848973 74.99356189 45.21512734 78.49337974 46.875 81.9453125 C50.62035271 89.82482835 53.22907334 96.09934799 52 105 C51.91363281 105.90105469 51.82726562 106.80210937 51.73828125 107.73046875 C50.77666211 115.06152216 47.84496668 120.74890637 44 127 C43.34 127 42.68 127 42 127 C41.79375 127.825 41.5875 128.65 41.375 129.5 C36.12906633 142.85328571 21.55323932 154.01646644 8.9375 160.0625 C4.1601398 162.08497131 -0.80460831 163.5084054 -5.76586914 164.99975586 C-12.75435757 167.14308827 -19.32069709 170.03332631 -26 173 C-41.08809754 179.5147226 -57.7625914 179.18673237 -73.9074707 179.18530273 C-76.69172142 179.18750334 -79.47558392 179.20575598 -82.25976562 179.22460938 C-84.052082 179.22754177 -85.84440022 179.2295276 -87.63671875 179.23046875 C-88.45774582 179.23765427 -89.27877289 179.24483978 -90.12467957 179.25224304 C-95.41626722 179.23149704 -99.90391519 178.42664103 -105 177 C-106.89383771 176.77424451 -108.78969264 176.56451001 -110.6875 176.375 C-120.40122373 174.80113084 -129.38659533 169.03246525 -135.40234375 161.2578125 C-135.92957031 160.51273438 -136.45679688 159.76765625 -137 159 C-137.62003906 158.19304687 -138.24007812 157.38609375 -138.87890625 156.5546875 C-144.08896557 149.07096236 -146.97869638 141.09689959 -149.875 132.5 C-150.25640137 131.37295654 -150.63780273 130.24591309 -151.03076172 129.0847168 C-154.86007619 117.22072609 -156.35110721 105.75174382 -156.3125 93.3125 C-156.32861328 92.26255859 -156.34472656 91.21261719 -156.36132812 90.13085938 C-156.36561642 83.23098816 -155.34921659 77.47474123 -153 71 C-152.64679688 69.9275 -152.29359375 68.855 -151.9296875 67.75 C-142.06388681 42.02583819 -106.5255202 24.25627383 -82.53149414 13.56005859 C-19.37369678 -13.77166397 -19.37369678 -13.77166397 0 0 Z M-86 39 C-86.82532227 39.5043457 -87.65064453 40.00869141 -88.50097656 40.52832031 C-97.76947818 46.21095081 -106.82727743 52.16327962 -115.75 58.375 C-116.57193848 58.94597412 -117.39387695 59.51694824 -118.24072266 60.10522461 C-128.17809223 67.10399252 -134.88548413 72.31048245 -137.25 84.6875 C-138.87404797 96.48399391 -137.75003477 106.56184691 -134.56005859 117.92529297 C-133.99583179 120.01544092 -133.49819123 122.11138027 -133.01953125 124.22265625 C-130.5299128 135.14102904 -127.97427276 145.64911574 -118 152 C-92.4320394 165.87720026 -54.53139571 153.91820267 -28 148 C-26.46488349 147.66778504 -24.92973 147.33574096 -23.39453125 147.00390625 C3.87884809 141.67486376 3.87884809 141.67486376 25.85546875 126.51953125 C34.2210232 108.1038909 19.94820715 74.56197248 13.53344727 57.11035156 C5.82207881 33.25608073 5.82207881 33.25608073 -10.125 15.4375 C-35.38957717 4.48252774 -65.58256357 26.45326461 -86 39 Z " fill="#020203" transform="translate(328,111)"/>
<path d="M0 0 C11.885891 7.63902208 16.99552858 30.25850002 21 43 C21 43.66 21 44.32 21 45 C32.28459883 45.72803863 39.40334815 41.75153722 48.25390625 35.03515625 C55.45726103 29.69668137 61.83119898 25.53184624 71.0234375 25.65234375 C73 26 73 26 76.0625 28.1875 C78 31 78 31 77.91796875 33.42578125 C76.71873609 36.78873581 75.1104504 37.90120799 72.25 40 C71.35152344 40.68707031 70.45304687 41.37414062 69.52734375 42.08203125 C68.69332031 42.71496094 67.85929687 43.34789062 67 44 C63.1812955 47.00747514 63.1812955 47.00747514 61.6875 51.5 C65.04304168 57.89150796 74.04812884 60.56525196 80.265625 63.47265625 C83.0699725 65.03908464 84.94383373 66.54122775 87 69 C87.5625 72 87.5625 72 87 75 C84.30105195 77.75372375 82.64026035 78.90071665 78.80078125 79.49609375 C72.28396436 79.38662874 66.5231192 79.02913359 60.37890625 76.75390625 C57.2911404 75.7753532 54.2079546 75.40148156 51 75 C51.37253906 76.12277344 51.74507813 77.24554688 52.12890625 78.40234375 C56.85338936 93.15873732 56.85338936 93.15873732 55 101 C49.74078636 102.36800355 49.74078636 102.36800355 46.578125 100.796875 C39.95609716 94.97482367 36.51108063 88.76962998 32.60375977 80.95874023 C27.35214407 70.53254212 21.42051457 64.69908828 11.1484375 59.21484375 C3.46552762 53.81011683 0.59012869 46.30443327 -2.25 37.625 C-2.58773438 36.64789063 -2.92546875 35.67078125 -3.2734375 34.6640625 C-6.11345099 26.25583359 -8.28004381 17.98795355 -8.3125 9.0625 C-8.32925781 7.98097656 -8.34601563 6.89945312 -8.36328125 5.78515625 C-8 3 -8 3 -6.79296875 1.12109375 C-4.33600171 -0.41517976 -2.84928614 -0.4152448 0 0 Z " fill="#010103" transform="translate(342,339)"/>
<path d="M0 0 C0.7528125 -0.02191406 1.505625 -0.04382813 2.28125 -0.06640625 C5.624717 0.88130182 6.6145344 2.69938558 8.5 5.5625 C9.52566311 7.76150023 10.48081709 9.99433519 11.375 12.25 C13.56096776 17.6297013 16.09876157 22.52965335 19.30078125 27.37890625 C20.63909622 29.81577292 21.2035061 31.802826 21.5 34.5625 C19.76635169 37.68306696 18.94004627 38.41581791 15.5 39.5625 C12.99817803 39.6590181 10.52508211 39.70251359 8.0234375 39.6953125 C6.93465805 39.69674759 6.93465805 39.69674759 5.82388306 39.69821167 C4.29241855 39.69889134 2.76095114 39.69705189 1.22949219 39.69287109 C-1.12311201 39.68750431 -3.47552662 39.69283116 -5.828125 39.69921875 C-7.31510459 39.69855823 -8.80208406 39.69727762 -10.2890625 39.6953125 C-10.99632477 39.69733673 -11.70358704 39.69936096 -12.43228149 39.70144653 C-17.38503757 39.67746243 -17.38503757 39.67746243 -18.5 38.5625 C-20.51594582 38.32822222 -22.538474 38.14913876 -24.5625 38 C-25.66722656 37.91621094 -26.77195312 37.83242188 -27.91015625 37.74609375 C-28.76480469 37.68550781 -29.61945313 37.62492187 -30.5 37.5625 C-29.13729518 34.53500679 -27.56701456 32.39077953 -25.29296875 29.984375 C-21.11545718 25.31456408 -17.99902611 20.18763658 -14.8125 14.8125 C-13.70969166 12.9603968 -12.6017868 11.11131671 -11.48828125 9.265625 C-11.00915283 8.45770508 -10.53002441 7.64978516 -10.03637695 6.81738281 C-7.26889429 2.75565234 -5.10893969 -0.00874818 0 0 Z " fill="#F6BB04" transform="translate(97.5,233.4375)"/>
<path d="M0 0 C2 1.625 2 1.625 3 4 C3 8.19099484 2.28791886 11.02766198 -0.25 14.3125 C-2.93907199 16.94045672 -4.36709793 18.20253369 -8 19 C-11.57529026 18.85102957 -13.72905079 18.14725501 -16.875 16.4375 C-19.32196065 13.6306922 -19.79342232 11.68765098 -19.55078125 7.96484375 C-18.52998004 4.32326214 -16.08047963 2.93956125 -13 1 C-8.36294296 -1.17053734 -4.9572189 -1.30945405 0 0 Z " fill="#060606" transform="translate(148,203)"/>
</svg>
